<svg width="440" height="50" viewBox="0 0 440 50" fill="none" xmlns="http://www.w3.org/2000/svg">
<path d="M440 0H0V50H440V0Z" fill="white"/>
<path d="M71.2666 25.7231C70.4089 25.7231 69.6424 25.9058 68.9673 26.271C68.2977 26.6307 67.772 27.1287 67.3901 27.7651C67.0138 28.396 66.8257 29.1182 66.8257 29.9316V29.9482C66.8257 30.7008 66.9917 31.376 67.3237 31.9736C67.6613 32.5713 68.1234 33.0417 68.71 33.3848C69.2965 33.7279 69.9717 33.8994 70.7354 33.8994C71.2887 33.8994 71.7702 33.8164 72.1797 33.6504C72.5947 33.4844 72.9434 33.2658 73.2256 32.9946C73.5078 32.7235 73.7209 32.4302 73.8647 32.1147H74.1553V29.9067H73.6572V29.9233C73.6572 30.3716 73.5521 30.7728 73.3418 31.127C73.1315 31.4811 72.8465 31.7578 72.4868 31.957C72.1271 32.1562 71.7204 32.2559 71.2666 32.2559C70.8128 32.2559 70.4089 32.1535 70.0547 31.9487C69.7005 31.744 69.4211 31.4645 69.2163 31.1104C69.0116 30.7507 68.9092 30.3384 68.9092 29.8735V29.8569C68.9092 29.4087 69.0171 29.0047 69.2329 28.645C69.4487 28.2798 69.7365 27.992 70.0962 27.7817C70.4559 27.5715 70.8516 27.4663 71.2832 27.4663C71.7314 27.4663 72.1326 27.5742 72.4868 27.79C72.8465 28.0059 73.1315 28.2992 73.3418 28.6699C73.5521 29.0407 73.6572 29.453 73.6572 29.9067L74.0308 31.9072C74.0308 31.9847 74.0308 32.0649 74.0308 32.1479C74.0308 32.2254 74.028 32.3057 74.0225 32.3887C73.9948 33.1523 73.8786 33.8496 73.6738 34.4805C73.4746 35.1058 73.173 35.6066 72.769 35.9829C72.3706 36.3537 71.856 36.5391 71.2251 36.5391C70.8765 36.5391 70.561 36.4837 70.2788 36.373C70.0021 36.2568 69.7642 36.0936 69.5649 35.8833C69.3713 35.673 69.2218 35.4295 69.1167 35.1528L69.0835 35.0698H66.9834L67 35.1611C67.1328 35.7699 67.3901 36.3122 67.772 36.7881C68.1593 37.2585 68.6463 37.6292 69.2329 37.9004C69.825 38.166 70.4891 38.2988 71.2251 38.2988C72.2267 38.2988 73.0872 38.0443 73.8066 37.5352C74.5316 37.0205 75.0877 36.2845 75.4751 35.3271C75.8625 34.3698 76.0562 33.2188 76.0562 31.874V31.8574C76.0562 30.7728 75.9289 29.8459 75.6743 29.0767C75.4198 28.3019 75.0684 27.6683 74.6201 27.1758C74.1774 26.6777 73.6683 26.3125 73.0928 26.0801C72.5173 25.8421 71.9085 25.7231 71.2666 25.7231ZM79.8247 36.3896C80.2065 36.3896 80.522 36.2651 80.771 36.0161C81.02 35.7616 81.1445 35.4517 81.1445 35.0864C81.1445 34.7157 81.02 34.4058 80.771 34.1567C80.522 33.9022 80.2065 33.7749 79.8247 33.7749C79.4484 33.7749 79.133 33.9022 78.8784 34.1567C78.6294 34.4058 78.5049 34.7157 78.5049 35.0864C78.5049 35.4517 78.6294 35.7616 78.8784 36.0161C79.133 36.2651 79.4484 36.3896 79.8247 36.3896ZM79.8247 30.2305C80.2065 30.2305 80.522 30.106 80.771 29.8569C81.02 29.6024 81.1445 29.2925 81.1445 28.9272C81.1445 28.5565 81.02 28.2466 80.771 27.9976C80.522 27.743 80.2065 27.6157 79.8247 27.6157C79.4484 27.6157 79.133 27.743 78.8784 27.9976C78.6294 28.2466 78.5049 28.5565 78.5049 28.9272C78.5049 29.2925 78.6294 29.6024 78.8784 29.8569C79.133 30.106 79.4484 30.2305 79.8247 30.2305ZM89.4038 38H91.4458V35.7007H93.0645V33.9326H91.4458V26.022H88.4326C88.1006 26.5145 87.7686 27.0208 87.4365 27.541C87.11 28.0557 86.7808 28.5786 86.4487 29.1099C86.1222 29.6356 85.793 30.1696 85.4609 30.7119C85.1344 31.2487 84.8107 31.7882 84.4897 32.3306C84.1743 32.8729 83.8589 33.4124 83.5435 33.9492V35.7007H89.4038V38ZM85.5356 33.9824V33.8579C85.7681 33.4484 86.0088 33.0361 86.2578 32.6211C86.5068 32.2005 86.7586 31.7827 87.0132 31.3677C87.2677 30.9471 87.5251 30.5293 87.7852 30.1143C88.0452 29.6992 88.3026 29.2925 88.5571 28.894C88.8172 28.4956 89.069 28.1082 89.3125 27.7319H89.437V33.9824H85.5356ZM98.02 38H100.153V26.022H98.02L94.8906 28.2217V30.2305L97.8706 28.1304H98.02V38Z" fill="black"/>
<path fill-rule="evenodd" clip-rule="evenodd" d="M336.365 27.033C336.365 26.4 335.887 25.8868 335.298 25.8868H334.232C333.643 25.8868 333.165 26.4 333.165 27.033V36.967C333.165 37.6 333.643 38.1132 334.232 38.1132H335.298C335.887 38.1132 336.365 37.6 336.365 36.967V27.033ZM328.931 28.3321H329.998C330.587 28.3321 331.064 28.8576 331.064 29.5058V36.9395C331.064 37.5877 330.587 38.1132 329.998 38.1132H328.931C328.342 38.1132 327.864 37.5877 327.864 36.9395V29.5058C327.864 28.8576 328.342 28.3321 328.931 28.3321ZM324.599 30.9811H323.532C322.943 30.9811 322.466 31.5133 322.466 32.1698V36.9245C322.466 37.581 322.943 38.1132 323.532 38.1132H324.599C325.188 38.1132 325.666 37.581 325.666 36.9245V32.1698C325.666 31.5133 325.188 30.9811 324.599 30.9811ZM319.298 33.4264H318.232C317.643 33.4264 317.165 33.951 317.165 34.5981V36.9415C317.165 37.5886 317.643 38.1132 318.232 38.1132H319.298C319.887 38.1132 320.365 37.5886 320.365 36.9415V34.5981C320.365 33.951 319.887 33.4264 319.298 33.4264Z" fill="black"/>
<path fill-rule="evenodd" clip-rule="evenodd" d="M351.937 28.3021C354.424 28.3022 356.816 29.2243 358.618 30.8778C358.754 31.0054 358.971 31.0038 359.105 30.8742L360.402 29.6107C360.47 29.545 360.507 29.4559 360.507 29.3632C360.506 29.2705 360.468 29.1819 360.399 29.1169C355.668 24.7422 348.204 24.7422 343.473 29.1169C343.405 29.1818 343.366 29.2704 343.365 29.3631C343.365 29.4558 343.402 29.5449 343.47 29.6107L344.768 30.8742C344.901 31.004 345.119 31.0056 345.254 30.8778C347.057 29.2242 349.449 28.3021 351.937 28.3021ZM351.933 32.5224C353.291 32.5223 354.599 33.0341 355.606 33.9582C355.742 34.0893 355.956 34.0865 356.089 33.9518L357.376 32.6325C357.444 32.5633 357.481 32.4694 357.48 32.3718C357.479 32.2743 357.44 32.1812 357.371 32.1134C354.307 29.2226 349.562 29.2226 346.498 32.1134C346.429 32.1812 346.39 32.2743 346.389 32.3719C346.388 32.4695 346.426 32.5634 346.493 32.6325L347.78 33.9518C347.913 34.0865 348.127 34.0893 348.263 33.9582C349.269 33.0347 350.577 32.523 351.933 32.5224ZM354.458 35.316C354.46 35.4213 354.422 35.5229 354.355 35.5967L352.179 38.0514C352.115 38.1236 352.028 38.1642 351.937 38.1642C351.846 38.1642 351.759 38.1236 351.695 38.0514L349.518 35.5967C349.451 35.5228 349.414 35.4212 349.416 35.3159C349.418 35.2105 349.459 35.1108 349.529 35.0401C350.919 33.7262 352.955 33.7262 354.345 35.0401C354.415 35.1108 354.456 35.2106 354.458 35.316Z" fill="black"/>
<path d="M393.507 30.2811V34.3566C394.312 34.0114 394.835 33.2085 394.835 32.3189C394.835 31.4293 394.312 30.6263 393.507 30.2811Z" fill="black"/>
<path d="M388.007 27.5H372.007C370.626 27.5 369.507 28.6193 369.507 30V34C369.507 35.3807 370.626 36.5 372.007 36.5H388.007C389.388 36.5 390.507 35.3807 390.507 34V30C390.507 28.6193 389.388 27.5 388.007 27.5Z" fill="black"/>
</svg>
