<svg width="408" height="1" viewBox="0 0 408 1" fill="none" xmlns="http://www.w3.org/2000/svg">
<path d="M-2.66666 -0.00653593C-2.67027 1.46622 -1.47929 2.66305 -0.00653593 2.66666C1.46622 2.67027 2.66305 1.47929 2.66666 0.00653593C2.67027 -1.46622 1.47929 -2.66305 0.00653593 -2.66666C-1.46622 -2.67027 -2.66305 -1.47929 -2.66666 -0.00653593ZM405.333 0.993464C405.33 2.46622 406.521 3.66305 407.993 3.66666C409.466 3.67027 410.663 2.47929 410.667 1.00654C410.67 -0.466219 409.479 -1.66305 408.007 -1.66666C406.534 -1.67027 405.337 -0.479291 405.333 0.993464ZM-0.00122549 0.499999L407.999 1.5L408.001 0.500002L0.00122549 -0.499999L-0.00122549 0.499999Z" fill="black"/>
</svg>
